<svg xmlns="http://www.w3.org/2000/svg"  viewBox="0 0 64 64" width="64px" height="64px"><linearGradient id="H7DSKSsMdbz_HJvPR0HoLa" x1="32" x2="32" y1="-359.5" y2="-412.676" gradientTransform="matrix(1 0 0 -1 0 -354)" gradientUnits="userSpaceOnUse" spreadMethod="reflect"><stop offset="0" stop-color="#1a6dff"/><stop offset="1" stop-color="#c822ff"/></linearGradient><path fill="url(#H7DSKSsMdbz_HJvPR0HoLa)" d="M32,54c-12.131,0-22-9.869-22-22s9.869-22,22-22s22,9.869,22,22S44.131,54,32,54z M32,12 c-11.028,0-20,8.972-20,20s8.972,20,20,20s20-8.972,20-20S43.028,12,32,12z"/><linearGradient id="H7DSKSsMdbz_HJvPR0HoLb" x1="32" x2="32" y1="-359.5" y2="-412.676" gradientTransform="matrix(1 0 0 -1 0 -354)" gradientUnits="userSpaceOnUse" spreadMethod="reflect"><stop offset="0" stop-color="#1a6dff"/><stop offset="1" stop-color="#c822ff"/></linearGradient><path fill="url(#H7DSKSsMdbz_HJvPR0HoLb)" d="M32,58C17.663,58,6,46.336,6,32S17.663,6,32,6s26,11.664,26,26S46.337,58,32,58z M32,8 C18.767,8,8,18.767,8,32s10.767,24,24,24s24-10.767,24-24S45.233,8,32,8z"/><linearGradient id="H7DSKSsMdbz_HJvPR0HoLc" x1="32" x2="32" y1="19" y2="45" gradientUnits="userSpaceOnUse" spreadMethod="reflect"><stop offset="0" stop-color="#6dc7ff"/><stop offset="1" stop-color="#e6abff"/></linearGradient><path fill="url(#H7DSKSsMdbz_HJvPR0HoLc)" d="M32,19c-7.168,0-13,5.832-13,13s5.832,13,13,13h3v-2h-3c-6.065,0-11-4.935-11-11 s4.935-11,11-11s11,4.935,11,11v3c0,1.103-0.897,2-2,2s-2-0.897-2-2v-3c0-3.859-3.141-7-7-7s-7,3.141-7,7s3.141,7,7,7 c2.124,0,4.027-0.955,5.312-2.454C37.918,37.986,39.342,39,41,39c2.206,0,4-1.794,4-4v-3C45,24.832,39.168,19,32,19z M32,37 c-2.757,0-5-2.243-5-5s2.243-5,5-5s5,2.243,5,5S34.757,37,32,37z"/></svg>